<svg width="22" height="15" viewBox="0 0 22 15" fill="none" xmlns="http://www.w3.org/2000/svg">
<path d="M0 15V0H2V10H10V2H18C19.1 2 20.0417 2.39167 20.825 3.175C21.6083 3.95833 22 4.9 22 6V15H20V12H2V15H0ZM6 9C5.16667 9 4.45833 8.70833 3.875 8.125C3.29167 7.54167 3 6.83333 3 6C3 5.16667 3.29167 4.45833 3.875 3.875C4.45833 3.29167 5.16667 3 6 3C6.83333 3 7.54167 3.29167 8.125 3.875C8.70833 4.45833 9 5.16667 9 6C9 6.83333 8.70833 7.54167 8.125 8.125C7.54167 8.70833 6.83333 9 6 9Z" fill="#06152E"/>
</svg>
